inDegrees=no
num_controls=7
num_derivatives=13
num_iterations=152
num_multipliers=7
num_parameters=0
num_slacks=7
num_states=26
objective=5.482811
objective_accelerations=0.656148
objective_balance=0.062777
objective_effort=0.351760
objective_height=4.368566
objective_ligament=0.043561
solver_duration=1702.113342
status=Solve_Succeeded
success=true
DataType=double
version=3
OpenSimVersion=4.4-2022-07-23-0e9fedc
endheader
time	/jointset/ground_pelvis/pelvis_tilt/value	/jointset/ground_pelvis/pelvis_tx/value	/jointset/ground_pelvis/pelvis_ty/value	/jointset/hip_l/hip_flexion_l/value	/jointset/hip_l/hip_adduction_l/value	/jointset/hip_l/hip_rotation_l/value	/jointset/back/lumbar_extension/value	/jointset/patellofemoral_l/patellar_flexion_l/value	/jointset/knee_l/knee_flexion_l/value	/jointset/knee_l/knee_adduction_l/value	/jointset/knee_l/knee_rotation_l/value	/jointset/ankle_l/ankle_angle_l/value	/jointset/subtalar_l/subtalar_angle_l/value	/jointset/ground_pelvis/pelvis_tilt/speed	/jointset/ground_pelvis/pelvis_tx/speed	/jointset/ground_pelvis/pelvis_ty/speed	/jointset/hip_l/hip_flexion_l/speed	/jointset/hip_l/hip_adduction_l/speed	/jointset/hip_l/hip_rotation_l/speed	/jointset/back/lumbar_extension/speed	/jointset/patellofemoral_l/patellar_flexion_l/speed	/jointset/knee_l/knee_flexion_l/speed	/jointset/knee_l/knee_adduction_l/speed	/jointset/knee_l/knee_rotation_l/speed	/jointset/ankle_l/ankle_angle_l/speed	/jointset/subtalar_l/subtalar_angle_l/speed	/forceset/tau_hip_flexion_l	/forceset/tau_hip_adduction_l	/forceset/tau_hip_rotation_l	/forceset/tau_knee_flexion_l	/forceset/tau_ankle_angle_l	/forceset/tau_subtalar_angle_l	/forceset/tau_lumbar_extension	lambda_cid13_p0	lambda_cid13_p1	lambda_cid13_p2	lambda_cid13_p3	lambda_cid13_p4	lambda_cid13_p5	lambda_cid14_p0	/jointset/ground_pelvis/pelvis_tilt/accel	/jointset/ground_pelvis/pelvis_tx/accel	/jointset/ground_pelvis/pelvis_ty/accel	/jointset/hip_l/hip_flexion_l/accel	/jointset/hip_l/hip_adduction_l/accel	/jointset/hip_l/hip_rotation_l/accel	/jointset/back/lumbar_extension/accel	/jointset/patellofemoral_l/patellar_flexion_l/accel	/jointset/knee_l/knee_flexion_l/accel	/jointset/knee_l/knee_adduction_l/accel	/jointset/knee_l/knee_rotation_l/accel	/jointset/ankle_l/ankle_angle_l/accel	/jointset/subtalar_l/subtalar_angle_l/accel	gamma_cid13_p0	gamma_cid13_p1	gamma_cid13_p2	gamma_cid13_p3	gamma_cid13_p4	gamma_cid13_p5	gamma_cid14_p0
0.5	-0.4773874676218661	-0.1027267045006564	0.7574694160896518	1.215236008138049	-0.4312866396274841	-0.2863974438539532	-0.2565467549300318	0.6295483611314951	0.6295483611315507	-0.1745303693090575	-0.1670560828129679	-0.07738101553437705	-0.1186288444062228	-1.147632589252076	-0.3826840944696819	-0.51734212690012	2.75287753690443	-0.2256856789990783	0.6251910728294761	-0.09780009782347375	1.502037615181585	1.502037615181673	0.0003502561815859468	-0.05274725436341612	-0.0152633162526159	-0.2449924852238893	-0.2297950258078251	0.008441733906613473	-0.002803667782073188	-0.1610914566009417	0.1189686318049191	0.06341935044445403	0.2056993377563004	4.154127982428654	-30.62291848023071	7.23337646981045	-9.240843799063668	-523.9948553936189	-67.51319135431409	-33.56756181533989	0.9576757835966928	0.7375892674600015	-0.3178695327672974	-1.734470236206715	0.580173089818612	-0.0748358764467438	1.131997839846142	-1.017376572883882	-1.017376572883998	0.04028168166207043	0.2047880863048136	-0.01376664643944707	0.615528338537864	6.28238284710152e-08	-7.732747999134673e-07	-2.350290794620898e-07	-3.03222895698189e-07	-1.5959434432791e-07	2.854744066575279e-07	-1.163911704411625e-07
0.51	-0.4888132555175692	-0.1065162187923616	0.7522812246575356	1.2426730009922	-0.433514985624253	-0.2801516838715411	-0.2574698296459997	0.6445161349532982	0.6445161349533325	-0.1745255394582089	-0.167575164597031	-0.0775345652002357	-0.1210486130876225	-1.137359942198444	-0.3751838025040486	-0.5201871709248964	2.734149081656463	-0.2199614327463453	0.6238780279775668	-0.08688140069981719	1.491316176419697	1.491316176419707	0.0006211366374555445	-0.051064797012	-0.01546162540653777	-0.2389478304650087	-0.2372012775699821	0.009296707784141245	-0.002617011242153116	-0.1622082998327008	0.1206485708757312	0.06482127530715885	0.2110823781160177	4.449809952709436	-31.20676106713566	7.238749869611592	-9.526991837945335	-527.7924623061888	-67.18186351602741	-32.93917099848507	1.086831768868492	0.7614336231227419	-0.2515044267106789	-1.997811531620266	0.5720279449119137	-0.1720658124190967	1.061822349083538	-1.129650259214865	-1.129650259226518	0.02113754698942952	0.1506375996206117	-0.02512128193993972	0.6010926872997281	5.661717913207465e-08	-7.33816009210496e-07	-2.265988602915831e-07	-2.922976484248006e-07	-1.487513662220531e-07	2.887565801908185e-07	-1.14622834135892e-07
0.52	-0.5001313624222097	-0.1102296932720088	0.7470678462672961	1.26991155362137	-0.4356853936481103	-0.2739215597422258	-0.258285714050638	0.6593706698412087	0.6593706698412167	-0.1745178715389206	-0.168077289199562	-0.07769054960404799	-0.1234075034928863	-1.12609639103993	-0.367476132058098	-0.522379518524786	2.713189491907356	-0.2140980844171603	0.6220639022114136	-0.07636203555783753	1.479389828402865	1.479389828402797	0.0009178698709246527	-0.04935581805816153	-0.01575026384331586	-0.2328168299966665	-0.244607529332118	0.01015168166165801	-0.002430354702257465	-0.1633251430644639	0.1223285099465337	0.0662232001698483	0.2164654184757672	4.735948691368863	-31.78932525800553	7.244367784617425	-9.783954494958953	-531.7235084316883	-66.87470994297063	-32.30143412497925	1.155856604572999	0.77906496352351	-0.1873302477899626	-2.18069713643482	0.6079935051089663	-0.1750520592955015	1.052131443510746	-1.258358423872615	-1.258358423872683	0.04545223718192852	0.2100924067892693	-0.03183250301066352	0.6327974804301999	5.013158222040121e-08	-6.900298904608163e-07	-2.156857740662824e-07	-2.793304559228746e-07	-1.373477098177374e-07	2.890588749611181e-07	-1.120167846064684e-07
0.53	-0.5113320991526504	-0.1138651434824113	0.741835805920414	1.29692971084509	-0.4377964836691105	-0.2677119446676818	-0.2589984698318887	0.6741000300776363	0.6741000300776445	-0.1745070226404758	-0.1685620604887667	-0.07784985783965165	-0.125704655194586	-1.113893323503428	-0.359586523938472	-0.5239183851419795	2.69008508011798	-0.2081019086016322	0.6197740943097059	-0.06627704160876316	1.4662926195411	1.46629261954109	0.001260935295120169	-0.04759622745860589	-0.0161240374484589	-0.2266030093123118	-0.2517844892241433	0.01080404570029776	-0.002281303547976002	-0.1644790030193992	0.1241150404722688	0.06750513174668289	0.2216114809786507	5.063235380611282	-32.33221993279066	7.249645401059132	-10.0362174101915	-535.493747159348	-66.50125117649364	-31.65686919328742	1.276188233592762	0.797962144950302	-0.1206662838074531	-2.428833277196745	0.5982789967524444	-0.2687843418760265	0.9734952330717764	-1.363819889079129	-1.363819889070421	0.02993754202315391	0.1592395094059748	-0.04205542876540524	0.6173787952800248	3.737827247580908e-08	-6.363338300219272e-07	-1.844991855070179e-07	-2.549207812861735e-07	-1.323537678985938e-07	2.905201468514983e-07	-1.103546610063372e-07
0.54	-0.5224060739266433	-0.1174208869298639	0.7365916766243351	1.323706119935515	-0.4398470420565592	-0.2615277955094183	-0.2596130133011553	0.6886927346711036	0.6886927346711023	-0.1744925023184076	-0.1690291664473784	-0.07801328493920738	-0.1279393278028739	-1.10074399975077	-0.351534779468116	-0.5247973083641113	2.664839865248296	-0.2019917577069909	0.6169707189572934	-0.05671957316105072	1.452058699809305	1.452058699809353	0.001652154598705752	-0.04582275194436228	-0.01657403663357392	-0.2203210113142819	-0.2589614491161998	0.01145640973891141	-0.002132252393811968	-0.1656328629743265	0.1259015709979955	0.06878706332348837	0.2267575434815182	5.381674513850739	-32.87411740250815	7.255394408169146	-10.26592762312708	-539.3932734688519	-66.15111024408864	-31.00792411245563	1.345107847804227	0.8114922336695105	-0.0553415687776528	-2.608857752496242	0.6307885209315758	-0.2777655494364666	0.9466263432383416	-1.485700597878748	-1.485700597878748	0.05508301305989961	0.2128693897268482	-0.04707761900503672	0.64643294316523	1.76904719373494e-08	-5.716735787779551e-07	-1.308823390463465e-07	-2.178513391812101e-07	-1.344514249843218e-07	2.932636913002655e-07	-1.097368809875508e-07
0.55	-0.5333441125191656	-0.1208954171873844	0.7313420484608494	1.350219736553501	-0.4418359530824938	-0.2553739225726567	-0.2601346106224682	0.7031373624242547	0.7031373624242785	-0.1744739611372183	-0.1694781432856566	-0.07818169337937599	-0.1301109108925363	-1.08671232296252	-0.3433529882637373	-0.5250185229344617	2.637541566168115	-0.1957779922109905	0.6137193528307342	-0.04770772718131813	1.436686637834341	1.436686637834399	0.002062682856982004	-0.04397100808438146	-0.01712197091419375	-0.2139913624930927	-0.2659380144038258	0.01202244419748267	-0.002001143511487601	-0.1666833400345108	0.1275544821131025	0.06992652208823788	0.2316822968022742	5.666410986948526	-33.35114731948953	7.254125137104409	-10.40375513620601	-543.0930317313057	-65.70114183628482	-30.35736372025222	1.454913089351607	0.8242256033809174	0.01093168951034514	-2.841595132489418	0.6186552459144419	-0.3615835448479124	0.8622883133414871	-1.589969065423344	-1.589969065421906	0.0349077503909682	0.1715953862351591	-0.06080684955496312	0.6269640444518148	6.316919411167421e-09	-5.176630379252308e-07	-1.009931973229845e-07	-1.928305107981111e-07	-1.287672508443891e-07	2.901220990587327e-07	-1.066930394460844e-07
0.5600000000000001	-0.5441372912448004	-0.1242875889249494	0.7260934967697948	1.376450114351335	-0.443762329517073	-0.2492551155772875	-0.2605693245663856	0.7174228675440406	0.7174228675440848	-0.1744511406698267	-0.1699085489848875	-0.07835601226574464	-0.1322190508554158	-1.071772026373625	-0.3350630754770043	-0.5245820138778564	2.608192101219518	-0.1894848394357778	0.6099575306808843	-0.03934289768155639	1.420234173134651	1.420234173134719	0.002508011842436646	-0.04210852414034472	-0.01775612587339421	-0.2076323859576632	-0.2729145796915444	0.01258847865602082	-0.001870034629291944	-0.167733817094679	0.1292073932282089	0.07106598085295489	0.2366070501229482	5.945381965208336	-33.8277444018856	7.253445506805512	-10.54106524680758	-546.8888635784796	-65.26978209720546	-29.71292950836551	1.52683180793314	0.8331165501403833	0.07620315661352538	-3.019090926179369	0.6466659767740037	-0.3798567540946122	0.8172230472441361	-1.701781142824032	-1.701781142824037	0.06204315849554785	0.2150174065380115	-0.06432175472114315	0.6522984860132627	4.920464499718378e-09	-4.764321495420034e-07	-9.957730128439301e-08	-1.822680188812486e-07	-1.13744879233664e-07	2.799183427888401e-07	-1.007379240774019e-07
0.5700000000000001	-0.5547767969723361	-0.1275963935835231	0.7208525782415066	1.402377118136422	-0.4456253735045202	-0.2431763099442846	-0.2609235852421021	0.731538522053655	0.7315385220536429	-0.1744236432709378	-0.1703201037292489	-0.07853708420495188	-0.1342634396099472	-1.055990015059593	-0.3266856068009186	-0.5234922125818597	2.576881374408408	-0.1831174037651879	0.605722143137569	-0.03162923107649446	1.402721734496946	1.402721734496983	0.002991461850657698	-0.04019855408980105	-0.01847210965234125	-0.2012467444686505	-0.2796048346164791	0.01297498814789417	-0.001770299028058698	-0.1688677467532239	0.1309619836674819	0.07205813313267151	0.241264384876193	6.265024751859474	-34.25379738733279	7.251915088476965	-10.65656859505648	-550.5013775874924	-64.76162500371402	-29.07619583866859	1.624755383988152	0.8418641832436761	0.1417694463079433	-3.236152869203262	0.6328663565569372	-0.4576706250578904	0.730439424841422	-1.802204894140756	-1.802204894145342	0.04139104012251978	0.1795888524424946	-0.07732131146187554	0.6315732351259407	6.133452684906266e-09	-4.40158227783373e-07	-1.086502390270615e-07	-1.746703141304378e-07	-9.763279865895493e-08	2.675939099018797e-07	-9.383969078075185e-08
